<svg xmlns="http://www.w3.org/2000/svg" viewBox="0 0 446.92 95.88"><defs><style>.cls-1{fill:#e9b35f;}.cls-2{font-size:52.78px;font-family:zihun106hao-mengquluzhuti;}.cls-2,.cls-3{fill:#dbbb7a;}</style></defs><g id="图层_2" data-name="图层 2"><g id="图层_1-2" data-name="图层 1"><ellipse class="cls-1" cx="418.25" cy="13.51" rx="5.38" ry="4.34" transform="translate(283.78 409.79) rotate(-73.11)"/><ellipse class="cls-1" cx="431.42" cy="13.31" rx="6.43" ry="4.79" transform="translate(156.73 346.24) rotate(-52.24)"/><ellipse class="cls-1" cx="440.9" cy="23.08" rx="6.43" ry="4.79" transform="translate(54.18 236.09) rotate(-31.84)"/><ellipse class="cls-1" cx="440.96" cy="36.29" rx="5.74" ry="4.39" transform="translate(5.63 115.37) rotate(-15)"/><path class="cls-1" d="M414.69,23.63S426,22.87,426.58,23s4.81.93,5,5-1.28,14.29-1.48,15.16-3.27,6.65-8.49,2.76a9.34,9.34,0,0,1-2.3-2.55,26.92,26.92,0,0,0-9-8.87s-3.84-2-2.77-5.86a5.77,5.77,0,0,1,2.29-3.15A9.31,9.31,0,0,1,414.69,23.63Z"/><ellipse class="cls-1" cx="6.08" cy="36.37" rx="4.34" ry="5.38" transform="translate(-30.49 31.62) rotate(-73.11)"/><ellipse class="cls-1" cx="5.87" cy="23.21" rx="4.79" ry="6.43" transform="translate(-16.07 13.64) rotate(-52.24)"/><ellipse class="cls-1" cx="15.64" cy="13.73" rx="4.79" ry="6.43" transform="translate(-4.89 10.32) rotate(-31.84)"/><ellipse class="cls-1" cx="28.85" cy="13.66" rx="4.39" ry="5.74" transform="matrix(0.97, -0.26, 0.26, 0.97, -2.55, 7.93)"/><path class="cls-1" d="M16.19,39.93S15.43,28.62,15.52,28s.92-4.8,5-5,14.28,1.28,15.15,1.48S42.31,27.8,38.42,33a9.18,9.18,0,0,1-2.55,2.3,26.92,26.92,0,0,0-8.87,9s-2,3.84-5.86,2.78A5.79,5.79,0,0,1,18,44.81,9.31,9.31,0,0,1,16.19,39.93Z"/><text class="cls-2" transform="translate(59.36 42.22)">日历效果展示</text><path class="cls-3" d="M65.06,93.78c0,.09,0,.32-.07.71s-.07.81-.1,1.27h-.42a14.78,14.78,0,0,1-5.21-.86,9.4,9.4,0,0,1-3.75-2.51,8.24,8.24,0,0,1-1.61-2.72,10.12,10.12,0,0,1-.6-3.61,9.13,9.13,0,0,1,.59-3.33,8.81,8.81,0,0,1,5.25-5.21,13.1,13.1,0,0,1,5-1h.54c0,.17,0,.44,0,.81s.05.77.08,1.2h-.41a13.15,13.15,0,0,0-3.11.38,8.65,8.65,0,0,0-2.78,1.16,7,7,0,0,0-2.33,2.58,7.35,7.35,0,0,0-.81,3.4,7.91,7.91,0,0,0,.73,3.44,6.39,6.39,0,0,0,2.32,2.6,8.9,8.9,0,0,0,2.9,1.26,13.45,13.45,0,0,0,3.19.39h.57Z"/><path class="cls-3" d="M82.45,94.75l-1.87,1.13c0-.1-.29-.8-.77-2.09s-1.11-2.94-1.9-5h-7.1c-.85,2.18-1.5,3.86-2,5.06s-.71,1.86-.76,2l-1.6-1q.3-.74,2.57-6.43t4.7-12h1.56q2.4,6.28,4.72,12.16C81.58,92.56,82.39,94.6,82.45,94.75ZM77.23,87c-.42-1.14-.87-2.34-1.34-3.58s-1-2.54-1.48-3.9h0c-.4,1-.89,2.29-1.46,3.79s-1,2.72-1.41,3.68h5.74Z"/><path class="cls-3" d="M95.73,95.48l-1.52,0H88l-2.15,0c0-1.61,0-3.24,0-4.89s0-3.26,0-4.85q0-4,0-6.07c0-1.39,0-2.37,0-2.93h2c0,1.2,0,2.59,0,4.17s0,2.87,0,3.88q0,3.69,0,6.15c0,1.64,0,2.51,0,2.6h2.45l3.74,0,1.7,0Z"/><path class="cls-3" d="M109.84,95.48l-1.59,0h-6.48l-2.14,0c0-.54,0-1.72,0-3.52s0-3.67,0-5.59c0-1.06,0-2.45,0-4.19s0-3.54,0-5.4l2.13,0h6.37l1.56,0v2l-1.51,0-3.45,0H101.6c0,1.06,0,2.11,0,3.16s0,2,0,3h2.59c1.41,0,2.67,0,3.78,0l1.77,0v1.94l-2,0-3.45,0h-2.71c0,1.76,0,3.16,0,4.2s0,1.91,0,2.61l1.72,0h2.17l3,0h1.36Z"/><path class="cls-3" d="M128.8,76.74c0,1.47,0,3.14-.05,5s0,3.25,0,4.08c0,2.65,0,4.76,0,6.33s0,2.4,0,2.5l-1.59.91q-3.63-5.72-6.78-10.32L116.77,80l0,0q0,3.75.05,9.22t0,6.31H115q0-.34,0-2.49t0-6c0-1,0-2.37,0-4.06s0-3.47,0-5.36l1.82-1,3.68,5.45q3.47,5.13,6.53,9.52h0q0-2.16,0-7.26c0-3.4,0-5.93,0-7.57Z"/><path class="cls-3" d="M148.33,86.23a8.65,8.65,0,0,1-3.73,7.33,11.28,11.28,0,0,1-3.21,1.51,14,14,0,0,1-4,.52c-.56,0-1.11,0-1.64,0l-.89,0s0-1.12,0-3.23,0-4.1,0-6V82.46c0-1.57,0-3.48-.06-5.72H136l1.05,0a16.89,16.89,0,0,1,4.41.52,10.09,10.09,0,0,1,3.43,1.64,8.09,8.09,0,0,1,2.6,3.13A9.89,9.89,0,0,1,148.33,86.23Zm-2,0a7.89,7.89,0,0,0-.68-3.3,6.35,6.35,0,0,0-2.12-2.55,8.08,8.08,0,0,0-3-1.39,13.14,13.14,0,0,0-3-.39h-.63c0,1.47,0,2.7,0,3.67v5.2c0,1.51,0,3.6,0,6.27h.61a12,12,0,0,0,3.13-.42,8.41,8.41,0,0,0,2.65-1.19,7.26,7.26,0,0,0,2.2-2.41A6.91,6.91,0,0,0,146.29,86.21Z"/><path class="cls-3" d="M166.7,94.75l-1.86,1.13c0-.1-.29-.8-.77-2.09s-1.12-2.94-1.9-5h-7.11c-.84,2.18-1.5,3.86-1.95,5.06s-.71,1.86-.76,2l-1.61-1q.31-.74,2.57-6.43t4.7-12h1.56q2.4,6.28,4.72,12.16ZM161.49,87c-.43-1.14-.87-2.34-1.34-3.58s-1-2.54-1.49-3.9h0c-.4,1-.88,2.29-1.45,3.79s-1,2.72-1.41,3.68h5.74Z"/><path class="cls-3" d="M182.53,94.38,181,95.83c-.18-.22-.8-1-1.87-2.44s-2.72-3.6-4.95-6.58v-.13a5.4,5.4,0,0,0,1.21-.61,6.34,6.34,0,0,0,1.27-1,4.65,4.65,0,0,0,.78-1.18,4.5,4.5,0,0,0,.33-1.88,3.4,3.4,0,0,0-.49-1.86A2.82,2.82,0,0,0,176,79a4.56,4.56,0,0,0-1.46-.38c-.51,0-1-.06-1.42-.06h-1c0,1.77,0,3.34,0,4.69s0,2.32,0,2.88c0,1.28,0,3,0,5.22s0,3.57,0,4.13h-2c0-.56,0-1.64,0-3.25s0-3.62,0-6v-2.6c0-1.26,0-3.55-.06-6.89l1.2,0,2,0a14.78,14.78,0,0,1,2,.14,6.41,6.41,0,0,1,1.92.61,4.42,4.42,0,0,1,1.88,1.73,5,5,0,0,1,.7,2.68,5.16,5.16,0,0,1-1,3.31,9.85,9.85,0,0,1-2,2v.07c1.09,1.49,2.3,3,3.61,4.63S182.44,94.26,182.53,94.38Z"/><path class="cls-3" d="M209.7,95.48l-1.6,0h-6.47l-2.14,0c0-.54,0-1.72,0-3.52s0-3.67,0-5.59c0-1.06,0-2.45,0-4.19s0-3.54,0-5.4l2.13,0H208l1.56,0v2l-1.5,0-3.45,0h-3.14c0,1.06,0,2.11,0,3.16s0,2,0,3H204c1.41,0,2.67,0,3.77,0l1.77,0v1.94l-2,0-3.44,0h-2.71c0,1.76,0,3.16,0,4.2s0,1.91,0,2.61l1.72,0h2.17l3,0h1.36Z"/><path class="cls-3" d="M224.67,78.73l-1.57,0-3.36,0h-2.93c0,1.06,0,2.2,0,3.44s0,2.31,0,3.25h2.14l3.71,0,1.94,0v1.93l-2.22,0-3.55,0h-2c0,1.66,0,3.22,0,4.69s0,2.66,0,3.55h-2c0-.56,0-1.55,0-3s0-3.49,0-6.18c0-1.06,0-2.45,0-4.18s0-3.52,0-5.37l2.14,0h6.14l1.56,0Z"/><path class="cls-3" d="M239.17,78.73l-1.57,0-3.36,0h-2.93c0,1.06,0,2.2,0,3.44s0,2.31,0,3.25h2.14l3.71,0,1.94,0v1.93l-2.22,0-3.55,0h-2c0,1.66,0,3.22,0,4.69s0,2.66,0,3.55h-2c0-.56,0-1.55,0-3s0-3.49,0-6.18c0-1.06,0-2.45,0-4.18s0-3.52,0-5.37l2.14,0h6.14l1.56,0Z"/><path class="cls-3" d="M254,95.48l-1.59,0H246l-2.14,0c0-.54,0-1.72,0-3.52s0-3.67,0-5.59c0-1.06,0-2.45,0-4.19s0-3.54,0-5.4l2.13,0h6.37l1.56,0v2l-1.51,0-3.45,0H245.8c0,1.06,0,2.11,0,3.16s0,2,0,3h2.59c1.41,0,2.67,0,3.78,0l1.77,0v1.94l-2,0-3.45,0h-2.71c0,1.76,0,3.16,0,4.2s0,1.91,0,2.61l1.72,0h2.17l3,0H254Z"/><path class="cls-3" d="M269.82,93.78c0,.09,0,.32-.07.71s-.07.81-.1,1.27h-.42A14.74,14.74,0,0,1,264,94.9a9.4,9.4,0,0,1-3.75-2.51,8.24,8.24,0,0,1-1.61-2.72,10.12,10.12,0,0,1-.6-3.61,9.13,9.13,0,0,1,.59-3.33,9.34,9.34,0,0,1,1.54-2.63,9.48,9.48,0,0,1,3.71-2.58,13.1,13.1,0,0,1,5-1h.54c0,.17,0,.44.05.81s0,.77.08,1.2h-.41A13.15,13.15,0,0,0,266,79a8.65,8.65,0,0,0-2.78,1.16,6.87,6.87,0,0,0-2.33,2.58,7.35,7.35,0,0,0-.82,3.4,7.92,7.92,0,0,0,.74,3.44,6.39,6.39,0,0,0,2.32,2.6,8.9,8.9,0,0,0,2.9,1.26,13.45,13.45,0,0,0,3.19.39h.57Z"/><path class="cls-3" d="M284.94,78.72l-1.61,0h-4.28c0,1.91,0,3.37,0,4.36s0,2.34,0,4,0,3.32,0,5,0,2.82,0,3.38h-2c0-.56,0-1.7,0-3.43s0-3.42,0-5.08V83.11c0-1,0-2.43,0-4.42-1.71,0-3.09,0-4.15,0l-1.74,0V76.78l3,0h8.63l2.11,0Z"/><path class="cls-3" d="M315.07,86.23a8.65,8.65,0,0,1-3.73,7.33,11.28,11.28,0,0,1-3.21,1.51,14,14,0,0,1-4,.52c-.56,0-1.1,0-1.64,0l-.89,0s0-1.12,0-3.23,0-4.1,0-6V82.46c0-1.57,0-3.48-.06-5.72h1.1l1,0a16.78,16.78,0,0,1,4.41.52,10.09,10.09,0,0,1,3.43,1.64A8.21,8.21,0,0,1,314.22,82,9.89,9.89,0,0,1,315.07,86.23Zm-2,0a8,8,0,0,0-.67-3.3,6.46,6.46,0,0,0-2.13-2.55,8.08,8.08,0,0,0-3-1.39,13.07,13.07,0,0,0-3-.39h-.62c0,1.47,0,2.7,0,3.67s0,1.75,0,2.32,0,1.38,0,2.88,0,3.6,0,6.27h.62a12,12,0,0,0,3.12-.42A8.47,8.47,0,0,0,310,92.11a7.23,7.23,0,0,0,2.19-2.41A6.91,6.91,0,0,0,313,86.21Z"/><path class="cls-3" d="M322.09,95.5h-2c0-.56,0-1.56,0-3s0-3.51,0-6.2c0-1.06,0-2.46,0-4.19s0-3.52-.05-5.38h2c0,1.34,0,2.89,0,4.66s0,3.22,0,4.34q0,4.26,0,6.59C322.07,93.89,322.08,94.94,322.09,95.5Z"/><path class="cls-3" d="M336.25,90.22a5.25,5.25,0,0,1-.58,2.53,4.85,4.85,0,0,1-1.57,1.76,6.79,6.79,0,0,1-2.06.93,9.93,9.93,0,0,1-2.59.32q-.76,0-1.59-.06l-1-.07-.09-2c.11,0,.42.06.93.11s1.12.07,1.82.07a8.94,8.94,0,0,0,1.64-.19,5.09,5.09,0,0,0,1.55-.51,3.16,3.16,0,0,0,1.09-1,2.6,2.6,0,0,0,.37-1.45,3.12,3.12,0,0,0-.37-1.59,4.07,4.07,0,0,0-1.26-1.26,16.32,16.32,0,0,0-1.46-.88,16.87,16.87,0,0,1-1.62-1,5.35,5.35,0,0,1-1.75-1.9,5,5,0,0,1-.52-2.29,5,5,0,0,1,.47-2.24,5.34,5.34,0,0,1,1.23-1.61,5,5,0,0,1,1.89-1,8.29,8.29,0,0,1,2.47-.34c.49,0,1,0,1.5,0l.88.06.16,2-.87-.09a16.78,16.78,0,0,0-1.9-.09,5.57,5.57,0,0,0-1.38.18,3.59,3.59,0,0,0-1.26.54,2.72,2.72,0,0,0-.82.89,2.67,2.67,0,0,0-.33,1.35,2.72,2.72,0,0,0,.35,1.32A4.24,4.24,0,0,0,331,84.08a12.88,12.88,0,0,0,1.3.81q.81.45,1.59,1a5.81,5.81,0,0,1,1.81,1.9A4.9,4.9,0,0,1,336.25,90.22Z"/><path class="cls-3" d="M351.13,83.16a6.44,6.44,0,0,1-1.13,3.7,5.61,5.61,0,0,1-3,2.24,9.5,9.5,0,0,1-1.78.36,17.61,17.61,0,0,1-2.15.12l0,5.92h-2c0-.56,0-1.59,0-3.11s0-3.87,0-7c0-1,0-2.24,0-3.71s0-3.1-.05-4.89h1.82a17.73,17.73,0,0,1,3.53.3,6.34,6.34,0,0,1,2.46,1,5.19,5.19,0,0,1,1.66,2.09A7.12,7.12,0,0,1,351.13,83.16Zm-2,0a5,5,0,0,0-.57-2.46,3.93,3.93,0,0,0-1.73-1.61,4.54,4.54,0,0,0-1.56-.45,16.14,16.14,0,0,0-1.73-.09h-.44c0,.1,0,.8,0,2.1s0,2.33,0,3.08,0,1.51,0,2.46V87.8h.48a13.31,13.31,0,0,0,1.72-.13,4.79,4.79,0,0,0,1.55-.46,4,4,0,0,0,1.72-1.56A4.73,4.73,0,0,0,349.09,83.16Z"/><path class="cls-3" d="M365.3,95.48l-1.51,0H357.6l-2.14,0c0-1.61,0-3.24,0-4.89s0-3.26,0-4.85q0-4,0-6.07c0-1.39,0-2.37,0-2.93h2c0,1.2,0,2.59,0,4.17s0,2.87,0,3.88q0,3.69,0,6.15c0,1.64,0,2.51,0,2.6h2.45l3.74,0,1.69,0Z"/><path class="cls-3" d="M382.57,94.75l-1.87,1.13c0-.1-.29-.8-.77-2.09s-1.11-2.94-1.9-5h-7.11L369,93.88c-.46,1.2-.71,1.86-.76,2l-1.61-1q.31-.74,2.57-6.43t4.7-12h1.57q2.4,6.28,4.71,12.16C381.7,92.56,382.5,94.6,382.57,94.75ZM377.35,87c-.42-1.14-.87-2.34-1.34-3.58l-1.49-3.9h0c-.4,1-.88,2.29-1.45,3.79s-1,2.72-1.41,3.68h5.74Z"/><path class="cls-3" d="M397.32,77.65c-.07.09-.86,1.26-2.38,3.49s-2.74,4-3.67,5.41c0,1.69,0,3.47,0,5.33s0,3.06.05,3.62h-2c0-.56,0-1.78.05-3.67s0-3.6,0-5.11q-1.47-2.27-3.63-5.46c-1.44-2.14-2.22-3.28-2.33-3.44l1.58-1.4,1.88,2.94q1.74,2.7,3.49,5.37h0L394,79.38l1.95-3Z"/></g></g></svg>