<svg xmlns="http://www.w3.org/2000/svg" viewBox="0 0 214.18 153.91"><defs><style>.cls-1{fill:#3157a6;}</style></defs><g id="图层_2" data-name="图层 2"><g id="图层_1-2" data-name="图层 1"><path class="cls-1" d="M104.82,153.91A86.71,86.71,0,0,1,72,147.44C56.83,141,45.6,130.12,39.14,115.61c-8.22,7-15.3,7.32-17.66,7.19-4.42-.23-10.8-2.32-16.09-10.93-8.72-14.19-5.56-29.43.31-39C11.66,63.2,21,57.65,30,58.4L31,69.26c-4.45-.37-11.52,4.18-15,9.92-4,6.5-6.18,16.85-.3,26.42,2.06,3.35,4.25,5.11,6.51,5.23,4.79.24,11.29-5.79,14.47-9.92A6.11,6.11,0,0,1,47.31,103c2.57,9.15,14.29,38.94,57.51,38.94.52,0,52.17-.53,61.47-46.66,5.63-27.91,18.16-40.15,27.68-45.5A39,39,0,0,1,208.37,45a5.2,5.2,0,0,1,5.76,5.84h0L214,52.36a5.22,5.22,0,0,1-4.52,4.55C201.66,58,184.79,64.17,178,97.63c-4.39,21.8-17.45,38.36-37.76,47.9A90.37,90.37,0,0,1,104.82,153.91ZM46.09,108.22l0,0Z"/><path class="cls-1" d="M43.91,73.35c-14.58,0-30.15-12.69-37.77-19.86a6,6,0,0,1,0-8.78h0a6,6,0,0,1,8.18,0A106.18,106.18,0,0,0,23,52c7.21,5.4,13.81,8.61,19,9.28a69.47,69.47,0,0,0-1.09-17.88,8.86,8.86,0,0,1,3.69-9.47,8.43,8.43,0,0,1,10.31,1c7.42,7,11.94,9.42,14.26,10.22.45-5.56-2.52-19.9-7.16-34.59A6,6,0,0,1,65.7,3.07h0a6,6,0,0,1,7.66,3.87c1.22,3.91,2.84,9.38,4.29,15.19,5.3,21.28,3.53,27.79,1.09,31.36a9,9,0,0,1-7.19,4c-5,.23-10.81-2.3-17.71-7.64a94,94,0,0,1-.22,15.79A8.45,8.45,0,0,1,46,73.26Q44.93,73.35,43.91,73.35Z"/><path class="cls-1" d="M107.17,53.17a22.21,22.21,0,0,1-3.34-.26A21.89,21.89,0,0,1,88.41,42.15,28.39,28.39,0,0,1,85,22.91C87.37,8.4,99.71-1.77,112.5.26A21.85,21.85,0,0,1,127.93,11a28.41,28.41,0,0,1,3.43,19.24,28.77,28.77,0,0,1-9.43,17.21A22.58,22.58,0,0,1,107.17,53.17Zm2-41.84c-6,0-11.54,5.67-12.81,13.39a17.29,17.29,0,0,0,2,11.7,10.53,10.53,0,0,0,7.3,5.3,10.69,10.69,0,0,0,8.63-2.78A17.5,17.5,0,0,0,120,28.45a17.28,17.28,0,0,0-2-11.7,10.54,10.54,0,0,0-7.3-5.31A10.36,10.36,0,0,0,109.2,11.33Z"/><path class="cls-1" d="M135,61.65h0a6,6,0,0,1-1.6-7.95,45.93,45.93,0,0,0,6.32-19.08,44.86,44.86,0,0,0-2.19-18.44A6,6,0,0,1,140.2,9h0a6,6,0,0,1,8.62,3.26,56.63,56.63,0,0,1,2.79,23.44,57.86,57.86,0,0,1-7.93,24A6,6,0,0,1,135,61.65Z"/><path class="cls-1" d="M151.12,37.6l-11-4.85c6.22-14.07,20.32-15.28,30.61-13.26a6,6,0,0,1,4.44,8.11h0a6,6,0,0,1-6.77,3.67C163,30.18,154.53,29.89,151.12,37.6Z"/><path class="cls-1" d="M171.08,94.31c-5.15,0-11-3-15.19-7.08-7.33-7-12.22-19.22-4-32.33a22.33,22.33,0,0,1,15-10.54c6.19-1.15,13.25.09,21,3.7a59.59,59.59,0,0,1,9.48,5.53l-7.17,9.61c-3.3-2.44-13.53-8.48-21.13-7.05a10.31,10.31,0,0,0-7.06,5.13c-3.07,4.88-3.25,9.6-.53,14,3,4.86,8.08,7.17,9.54,7a2.09,2.09,0,0,0-.82.35l6.8,9.88A10.36,10.36,0,0,1,171.08,94.31Z"/><path class="cls-1" d="M84.62,94.77a6.24,6.24,0,1,0-6.24-6.24,6.32,6.32,0,0,0,6.24,6.24Z"/><path class="cls-1" d="M123.66,92.58a6.25,6.25,0,1,0-6.24-6.24,6.32,6.32,0,0,0,6.24,6.24Z"/></g></g></svg>